<svg id="Diagram" xmlns="http://www.w3.org/2000/svg" width="154.301" height="156.007" viewBox="0 0 154.301 156.007">
  <path id="Circle" d="M76.723,0A76.723,76.723,0,1,1,10.281,38.362,76.72,76.72,0,0,1,76.723,0V10.23a66.494,66.494,0,1,0,57.585,33.247A66.493,66.493,0,0,0,76.723,10.23Z" transform="translate(0)" fill="rgba(69,90,100,0)"/>
  <path id="Segment" d="M0,0A76.76,76.76,0,0,1,41.763,12.361L36.2,20.945A66.517,66.517,0,0,0,0,10.23Z" transform="translate(77.576 2.557)" fill="#ffc700"/>
  <path id="Segment-2" data-name="Segment" d="M5.567,0A76.722,76.722,0,0,1,40.425,68.343a76.741,76.741,0,0,1-12.762,38.549l-8.516-5.669a66.492,66.492,0,0,0,4.245-66.357A66.457,66.457,0,0,0,0,8.584Z" transform="translate(113.772 14.918)" fill="#21d59b"/>
  <path id="Segment-3" data-name="Segment" d="M140.582,110.592A76.726,76.726,0,1,1,41.319,0l4.723,9.07a66.493,66.493,0,1,0,86.024,95.853Z" transform="translate(0.853 11.219)" fill="#0058ff"/>
  <path id="Segment-4" data-name="Segment" d="M0,8.661A76.748,76.748,0,0,1,35.4,0V10.23a66.515,66.515,0,0,0-30.681,7.5Z" transform="translate(42.172 2.557)" fill="#f99600"/>
</svg>
