<svg xmlns="http://www.w3.org/2000/svg" xmlns:xlink="http://www.w3.org/1999/xlink" width="68" height="68" viewBox="0 0 68 68">
  <defs>
    <clipPath id="clip-ForwardedFinalDestination">
      <rect width="68" height="68"/>
    </clipPath>
  </defs>
  <g id="ForwardedFinalDestination" clip-path="url(#clip-ForwardedFinalDestination)">
    <rect width="68" height="68" fill="#fff"/>
    <g id="Group_4" data-name="Group 4" transform="translate(14 14)">
      <path id="Path_18" data-name="Path 18" d="M7.236,30.886,6.15,28.81a20.573,20.573,0,0,1,3.064-1.256l.743,2.223A18.436,18.436,0,0,0,7.236,30.886ZM22.952,40h3.125V37.656H22.952ZM2.678,32.592l2.282.533a3.091,3.091,0,0,1,1.392-1.712l-1.33-1.93A5.309,5.309,0,0,0,2.678,32.592ZM13.738,21.13a7.08,7.08,0,0,1,2.495.86L17.5,20.017a9.246,9.246,0,0,0-3.376-1.2Zm3.332,3.222,2.223.743a4.174,4.174,0,0,0-.64-4.068l-1.814,1.484A1.888,1.888,0,0,1,17.07,24.352Zm-4.31-5.643H9.634v2.344h3.125ZM18.648,40c.386,0,3.133,0,3.133,0V37.656s-2.736,0-3.117,0Zm-4.335-.1c.96.041,2.021.07,3.155.086l.033-2.343c-1.112-.016-2.151-.044-3.088-.084Zm.2-13.927.639,2.255a6.939,6.939,0,0,0,3.3-1.705l-1.715-1.6A5.042,5.042,0,0,1,14.51,25.971Zm-4.153,1.217.692,2.24c.207-.064,2.561-.786,2.953-.891l-.608-2.264C12.97,26.386,10.567,27.123,10.357,27.188ZM9.939,39.56c.942.117,1.984.208,3.186.278l.136-2.34c-1.135-.066-2.155-.155-3.032-.264Zm-4.5-1.1a13.132,13.132,0,0,0,3.293.923l.389-2.311a11.06,11.06,0,0,1-2.7-.74Zm-.517-4.494-2.342.108A4.633,4.633,0,0,0,4.192,37.7l1.485-1.814A2.308,2.308,0,0,1,4.922,33.968Zm-.89-10.5A4.031,4.031,0,0,1,2.7,15.636V0H14.474L9.23,4.036l5.244,4.036h-9.2v7.532a4.031,4.031,0,0,1-1.243,7.866Zm0-2.578A1.453,1.453,0,1,0,2.578,19.44,1.455,1.455,0,0,0,4.031,20.893ZM40,23.014a9.714,9.714,0,0,1-6.434,9.143L30.29,39.962l-3.277-7.805A9.711,9.711,0,1,1,40,23.014Zm-2.641,0a7.07,7.07,0,1,0-7.07,7.07A7.07,7.07,0,0,0,37.359,23.018Z"/>
    </g>
  </g>
</svg>
