<svg xmlns="http://www.w3.org/2000/svg" width="81.667" height="81.679" viewBox="0 0 81.667 81.679">
  <g id="link" transform="translate(-0.039 0)">
    <g id="Group_2" data-name="Group 2" transform="translate(0.039 26.256)">
      <g id="Group_1" data-name="Group 1">
        <path id="Path_4" data-name="Path 4" d="M49.869,170.194a18.529,18.529,0,0,0-3.2-2.572,19.058,19.058,0,0,0-23.751,2.572L5.607,187.521a19.056,19.056,0,0,0,26.936,26.963l14.291-14.291a1.361,1.361,0,0,0-.966-2.327h-.544a22.908,22.908,0,0,1-8.711-1.688,1.361,1.361,0,0,0-1.484.3l-10.276,10.29A8.171,8.171,0,0,1,13.3,195.211l17.381-17.367a8.166,8.166,0,0,1,11.542,0,5.58,5.58,0,0,0,7.649,0,5.391,5.391,0,0,0,0-7.649Z" transform="translate(-0.039 -164.614)" fill="#dde1ff"/>
      </g>
    </g>
    <g id="Group_4" data-name="Group 4" transform="translate(30.258 0)">
      <g id="Group_3" data-name="Group 3" transform="translate(0 0)">
        <path id="Path_5" data-name="Path 5" d="M235.367,5.582a19.056,19.056,0,0,0-26.949,0L194.141,19.846a1.366,1.366,0,0,0,.994,2.327h.5a22.866,22.866,0,0,1,8.7,1.7,1.361,1.361,0,0,0,1.484-.3L216.067,13.34A8.171,8.171,0,0,1,227.623,24.9L214.856,37.648l-.109.122-4.464,4.437a8.166,8.166,0,0,1-11.542,0,5.58,5.58,0,0,0-7.649,0,5.427,5.427,0,0,0,0,7.676,18.892,18.892,0,0,0,5.444,3.811c.286.136.572.245.857.367s.585.218.871.327.585.2.871.286l.8.218c.544.136,1.089.245,1.647.34a18.945,18.945,0,0,0,2.028.191h1.034l.817-.1c.3-.014.612-.082.966-.082h.463l.939-.136.436-.082.789-.163h.15a19.053,19.053,0,0,0,8.833-5.009l17.326-17.326A19.056,19.056,0,0,0,235.367,5.582Z" transform="translate(-189.502 0)" fill="#dde1ff"/>
      </g>
    </g>
  </g>
</svg>
