<svg xmlns="http://www.w3.org/2000/svg" width="79.102" height="90" viewBox="0 0 79.102 90">
  <g id="notification" transform="translate(-30.999)">
    <path id="Path_1" data-name="Path 1" d="M97.8,46.206V37.793A27.294,27.294,0,0,0,78.46,11.719V7.91a7.91,7.91,0,0,0-15.82,0v3.809A27.294,27.294,0,0,0,43.3,37.793v8.413A41.4,41.4,0,0,1,31.733,74.991a2.637,2.637,0,0,0,1.9,4.462h24a13.185,13.185,0,0,0,25.837,0h24a2.637,2.637,0,0,0,1.9-4.462A41.4,41.4,0,0,1,97.8,46.206ZM67.913,7.91a2.637,2.637,0,0,1,5.273,0v2.765c-.868-.084-1.747-.128-2.637-.128s-1.769.044-2.637.128ZM70.55,84.727a7.923,7.923,0,0,1-7.457-5.273H78.006a7.923,7.923,0,0,1-7.457,5.273ZM39.319,74.18a46.619,46.619,0,0,0,9.258-27.973V37.793a21.973,21.973,0,0,1,43.945,0v8.413a46.618,46.618,0,0,0,9.259,27.973Z" fill="#dde1ff"/>
    <path id="Path_2" data-name="Path 2" d="M400.3,80.246a2.637,2.637,0,0,0,5.273,0,39.292,39.292,0,0,0-11.584-27.967,2.637,2.637,0,0,0-3.729,3.729A34.053,34.053,0,0,1,400.3,80.246Z" transform="translate(-295.477 -42.453)" fill="#ff5b71"/>
    <path id="Path_3" data-name="Path 3" d="M33.637,82.883a2.637,2.637,0,0,0,2.637-2.637,34.054,34.054,0,0,1,10.04-24.238,2.637,2.637,0,1,0-3.729-3.729A39.292,39.292,0,0,0,31,80.246,2.637,2.637,0,0,0,33.637,82.883Z" transform="translate(-0.001 -42.453)" fill="#ff5b71"/>
  </g>
</svg>
