<svg xmlns="http://www.w3.org/2000/svg" xmlns:xlink="http://www.w3.org/1999/xlink" width="68" height="68" viewBox="0 0 68 68">
  <defs>
    <clipPath id="clip-returnRequestIcon">
      <rect width="68" height="68"/>
    </clipPath>
  </defs>
  <g id="returnRequestIcon" clip-path="url(#clip-returnRequestIcon)">
    <rect width="68" height="68" fill="#fff"/>
    <g id="Group_1" data-name="Group 1" transform="translate(6.162 6.242)">
      <path id="Path_1" data-name="Path 1" d="M3.818,30.824c0,7.209.006,20.264,0,20.549a.587.587,0,0,0,.586.619H39.077a.587.587,0,0,0,.587-.587V41.336h9.891a2.87,2.87,0,0,0,2.863-2.871V11.377a2.87,2.87,0,0,0-2.863-2.871H28.014V4.095a.587.587,0,0,0-.88-.508l-12.6,7.282a.587.587,0,0,0,0,1.016l12.6,7.275a.587.587,0,0,0,.88-.508V14.24H46.685V35.594H39.664V30.83a1.863,1.863,0,0,0,1.073-1.683V22.03a1.867,1.867,0,0,0-1.865-1.866H4.625A1.871,1.871,0,0,0,2.752,22.03v7.117A1.862,1.862,0,0,0,3.818,30.824ZM4.993,50.818c0-2.763,0-14.056,0-19.805H18.083V36.2a.587.587,0,0,0,.587.587h6.142a.631.631,0,0,0,.594-.594V31.013H38.491c0-.2,0,19.288,0,19.805H4.993ZM24.226,35.6H19.257V33.4h4.969ZM26.84,17.636,16,11.377,26.84,5.112ZM47.271,36.767a.587.587,0,0,0,.587-.587V13.654a.587.587,0,0,0-.587-.587H28.014V9.68H49.555a1.7,1.7,0,0,1,1.69,1.7V38.465a1.7,1.7,0,0,1-1.69,1.7H39.664v-3.4ZM39.564,22.03v7.117a.693.693,0,0,1-.692.692H25.4v-8.5H38.872A.693.693,0,0,1,39.564,22.03ZM24.226,32.23H19.257V21.338h4.969Zm-20.3-10.2a.688.688,0,0,1,.7-.692H18.083v8.5H4.625a.688.688,0,0,1-.7-.692Z" transform="translate(0)"/>
    </g>
  </g>
</svg>
