<svg xmlns="http://www.w3.org/2000/svg" xmlns:xlink="http://www.w3.org/1999/xlink" width="68" height="68" viewBox="0 0 68 68">
  <defs>
    <clipPath id="clip-returnCollectIcon">
      <rect width="68" height="68"/>
    </clipPath>
  </defs>
  <g id="returnCollectIcon" clip-path="url(#clip-returnCollectIcon)">
    <rect width="68" height="68" fill="#fff"/>
    <g id="Group_2" data-name="Group 2" transform="translate(39.997 40)">
      <path id="Path_2" data-name="Path 2" d="M.1,78.337a2.819,2.819,0,0,0,1.333,1.73h0A2.974,2.974,0,0,0,5.2,79.381v-2.86l-1,1.719a1.492,1.492,0,0,1-2.023.538h0a1.329,1.329,0,0,1-.636-.825,1.555,1.555,0,0,1,.171-1.178L5.2,70.72V67.749L.421,76.03A3.046,3.046,0,0,0,.1,78.337Z" transform="translate(-30 -72.607)"/>
      <path id="Path_3" data-name="Path 3" d="M118.779,76.034,114,67.749v2.972l3.493,6.058a1.46,1.46,0,0,1-.467,2A1.5,1.5,0,0,1,115,78.235l-1-1.714V79.38a2.988,2.988,0,0,0,2.3,1.077,2.922,2.922,0,0,0,2.8-2.119A3.044,3.044,0,0,0,118.779,76.034Z" transform="translate(-101.694 -72.607)"/>
      <path id="Path_4" data-name="Path 4" d="M51.963,60.27a.812.812,0,0,0-.664-.28H18.951a1.007,1.007,0,0,0-.741.214.993.993,0,0,0-.223.751V83a2.229,2.229,0,0,0,2.227,2.227H49.9A2.229,2.229,0,0,0,52.129,83c0-.079.017-22.172-.013-22.36a.753.753,0,0,0-.153-.367Zm-1.713,1.2L46.54,69.936a.742.742,0,0,1-.68.444h-21.6a.742.742,0,0,1-.68-.444l-3.711-8.462ZM50.645,83a.743.743,0,0,1-.742.742H20.213A.743.743,0,0,1,19.471,83V64.272l2.745,6.26a2.227,2.227,0,0,0,2.039,1.332h21.6A2.227,2.227,0,0,0,47.9,70.532l2.746-6.26Z" transform="translate(-41.306 -67.723)"/>
      <path id="Path_5" data-name="Path 5" d="M52.116,20.523a.742.742,0,0,0,1.126,0l5.938-6.911a.742.742,0,0,0-.563-1.226H55.674V2.994a2.994,2.994,0,1,0-5.989,0v9.392H46.742a.742.742,0,0,0-.563,1.226ZM50.427,13.87a.742.742,0,0,0,.742-.742V2.994a1.51,1.51,0,0,1,3.02,0V13.128a.742.742,0,0,0,.742.742H57L52.679,18.9l-4.322-5.03Z" transform="translate(-58.927 -30)"/>
    </g>
  </g>
</svg>
