<svg xmlns="http://www.w3.org/2000/svg" xmlns:xlink="http://www.w3.org/1999/xlink" width="60" height="60" viewBox="0 0 60 60">
  <defs>
    <clipPath id="clip-selaesGear">
      <rect width="60" height="60"/>
    </clipPath>
  </defs>
  <g id="selaesGear" clip-path="url(#clip-selaesGear)">
    <g id="Group_18" data-name="Group 18">
      <rect id="Rectangle_6" data-name="Rectangle 6" width="60" height="60" fill="#fff" opacity="0"/>
      <g id="Group_17" data-name="Group 17" transform="translate(719.117 -22.373)">
        <g id="Group_16" data-name="Group 16" transform="translate(-712.5 29)">
          <path id="Path_40" data-name="Path 40" d="M23.819,2.471a21.119,21.119,0,0,1,13.4,4.73.3.3,0,0,1-.2.526H34.2a.985.985,0,1,0,0,1.971h6.175a1.01,1.01,0,0,0,.985-.985V2.471a.985.985,0,0,0-1.971,0V5.755c0,.263-.328.394-.46.2A23.81,23.81,0,0,0,23.819.5,23.324,23.324,0,0,0,.5,23.819a1.01,1.01,0,0,0,.985.985,1.01,1.01,0,0,0,.985-.985A21.39,21.39,0,0,1,23.819,2.471Z" transform="translate(-0.5 -0.5)"/>
          <path id="Path_41" data-name="Path 41" d="M49.07,34.5a1.01,1.01,0,0,0-.985.985A21.39,21.39,0,0,1,26.736,56.834a21.03,21.03,0,0,1-13.86-5.124.229.229,0,0,1,.131-.394H16.16a.985.985,0,1,0,0-1.971H9.985A1.01,1.01,0,0,0,9,50.331v6.175a.985.985,0,1,0,1.971,0v-3.35c0-.2.2-.263.394-.2A23.315,23.315,0,0,0,50.121,35.485,1.122,1.122,0,0,0,49.07,34.5Z" transform="translate(-3.417 -12.166)"/>
        </g>
        <path id="Path_42" data-name="Path 42" d="M42.317,26.815h-1.9a.508.508,0,0,1-.526-.46,12.816,12.816,0,0,0-1.708-4.138.6.6,0,0,1,.066-.723l1.314-1.314a.6.6,0,0,0,0-.788l-1.774-1.774a.6.6,0,0,0-.788,0l-1.314,1.314A.589.589,0,0,1,34.96,19a10.452,10.452,0,0,0-4.138-1.708.557.557,0,0,1-.46-.526V14.926a.518.518,0,0,0-.526-.526h-2.43a.518.518,0,0,0-.526.526v1.839a.508.508,0,0,1-.46.526A12.816,12.816,0,0,0,22.283,19a.6.6,0,0,1-.723-.066l-1.314-1.314a.6.6,0,0,0-.788,0l-1.839,1.774a.6.6,0,0,0,0,.788l1.314,1.314a.589.589,0,0,1,.066.723,10.452,10.452,0,0,0-1.708,4.138.557.557,0,0,1-.526.46H14.926a.518.518,0,0,0-.526.525v2.43a.518.518,0,0,0,.526.526h1.839a.508.508,0,0,1,.526.46A12.816,12.816,0,0,0,19,34.895a.6.6,0,0,1-.066.723l-1.314,1.314a.6.6,0,0,0,0,.788l1.708,1.708a.6.6,0,0,0,.788,0l1.314-1.314a.589.589,0,0,1,.723-.066,10.452,10.452,0,0,0,4.138,1.708.557.557,0,0,1,.46.526V42.12a.518.518,0,0,0,.526.526h2.43a.518.518,0,0,0,.526-.526V40.412a.508.508,0,0,1,.46-.526,12.816,12.816,0,0,0,4.138-1.708.6.6,0,0,1,.723.066l1.314,1.314a.6.6,0,0,0,.788,0l1.708-1.708a.6.6,0,0,0,0-.788l-1.314-1.314a.589.589,0,0,1-.066-.723,10.452,10.452,0,0,0,1.708-4.138.557.557,0,0,1,.526-.46h1.839a.518.518,0,0,0,.526-.526v-2.43C42.843,27.078,42.58,26.815,42.317,26.815ZM28.589,36.668a8.08,8.08,0,1,1,8.08-8.08A8.074,8.074,0,0,1,28.589,36.668Z" transform="translate(-717.769 23.731)"/>
      </g>
    </g>
  </g>
</svg>
