<svg xmlns="http://www.w3.org/2000/svg" xmlns:xlink="http://www.w3.org/1999/xlink" width="60" height="60" viewBox="0 0 60 60">
  <defs>
    <clipPath id="clip-stepperIcon6">
      <rect width="60" height="60"/>
    </clipPath>
  </defs>
  <g id="stepperIcon6" clip-path="url(#clip-stepperIcon6)">
    <rect width="60" height="60" fill="#fff"/>
    <g id="Group_9" data-name="Group 9">
      <rect id="Rectangle_6" data-name="Rectangle 6" width="60" height="60" fill="#fff" opacity="0"/>
      <g id="Group_5" data-name="Group 5" transform="translate(-447.5 -682)">
        <path id="Path_22" data-name="Path 22" d="M72.1,78.644l-.978-1.166-.527.414,1.392,1.73,3.16-2.6-.414-.527Z" transform="translate(414.014 645.962)" fill="none"/>
        <path id="Path_23" data-name="Path 23" d="M38.785,65.724l-.075-.038a23.255,23.255,0,0,0-2.408-1.5,20.866,20.866,0,0,0-4.138-1.467l-.79-.226c-.414-.113-.79-.226-1.2-.339L29.831,62l-3.348,6.019a.505.505,0,0,1-.527.263.523.523,0,0,1-.451-.376l-.075-.3c-.226-.677-.414-1.354-.64-1.994a.606.606,0,0,1,.188-.677c.3-.3.564-.6.865-.94l.15-.15-.113-.075c-.263-.226-.451-.451-.677-.677a.285.285,0,0,0-.15-.075H23.361a.4.4,0,0,0-.226.075c-.226.226-.451.414-.677.64l-.038.113a4.367,4.367,0,0,0,.978,1.129.659.659,0,0,1,.226.64c-.226.715-.414,1.43-.677,2.182l-.038.15a.583.583,0,0,1-.451.376.431.431,0,0,1-.489-.263L18.583,62l-1.317.376c-1.2.376-2.445.752-3.649,1.166a13.537,13.537,0,0,0-3.386,1.693,3.909,3.909,0,0,0-1.73,2.6l-.038.15a2.54,2.54,0,0,0-.075.527c-.075.715-.113,1.392-.15,2.107L8.2,74.189H40.252a40.01,40.01,0,0,0-.451-6.847A2.855,2.855,0,0,0,38.785,65.724Zm-1.768,4.74a1.208,1.208,0,0,0-.752.94.97.97,0,0,1-.715.79.913.913,0,0,1-.451,0,1.2,1.2,0,0,0-1.354.226.611.611,0,0,1-.564.113c-.15-.038-.263-.075-.414-.113a.824.824,0,0,1-.489-.451,1.144,1.144,0,0,0-.978-.752.924.924,0,0,1-.715-1.129,1.377,1.377,0,0,0,.075-.865,1.166,1.166,0,0,0-.226-.489.967.967,0,0,1-.113-.9.566.566,0,0,1,.339-.376,1.819,1.819,0,0,0,.978-1.241.8.8,0,0,1,1.053-.6,1.585,1.585,0,0,0,1.43-.188.936.936,0,0,1,1.279.339,1.49,1.49,0,0,0,1.129.865.806.806,0,0,1,.677.828c-.038.3-.075.564-.113.828a.9.9,0,0,0,.263.79A.939.939,0,0,1,37.016,70.464Z" transform="translate(452.94 655.007)" fill="none"/>
        <path id="Path_24" data-name="Path 24" d="M45.621,23a2.847,2.847,0,0,0-.038-.564c-.075-.339-.226-.715-.3-1.053a7.021,7.021,0,0,1-.15-.94A6.036,6.036,0,0,0,44.3,17.88a10.466,10.466,0,0,0-.79-1.016A12.889,12.889,0,0,1,35.5,19.648l-.075-.075c.188-.3.376-.64.564-.9a4.742,4.742,0,0,0,.94-2.295c-.038-.038-.075-.075-.113-.075-.075.113-.075.226-.188.3-.752.677-1.467,1.354-2.257,1.994a6.248,6.248,0,0,1-2.107,1.091.541.541,0,0,0-.376.376,7.368,7.368,0,0,0-.527,2.52,1.28,1.28,0,0,1-.038.376c-.075-.188-.15-.339-.226-.489.113,4.891,3.611,9.254,7.411,9.254,3.762,0,7.072-4.176,7.3-9.029C45.772,22.733,45.7,22.883,45.621,23Z" transform="translate(438.654 683.515)" fill="none"/>
        <path id="Path_25" data-name="Path 25" d="M29.368,13.732v.376c0,5.417,3.762,10.157,8.013,10.157,4.213,0,7.938-4.74,7.938-10.157v-.3l.075-.075a.287.287,0,0,0,.075-.188c-.038-1.43,0-2.859-.075-4.289a5.743,5.743,0,0,0-1.467-3.5,6.705,6.705,0,0,0-3.762-1.994c-.564-.113-1.129-.188-1.73-.263H36.29c-.113.038-.188.038-.3.075-.564.075-1.129.15-1.693.263A5.864,5.864,0,0,0,29.33,9.444c-.113,1.354.038,2.746.038,4.1C29.33,13.62,29.368,13.657,29.368,13.732Zm8.013,9.932c-3.8,0-7.261-4.364-7.411-9.254.075.15.15.3.226.489a1.411,1.411,0,0,0,.038-.376A6.438,6.438,0,0,1,30.76,12a.621.621,0,0,1,.376-.376,5.639,5.639,0,0,0,2.107-1.091c.79-.64,1.5-1.317,2.257-1.994a2.1,2.1,0,0,0,.188-.3c.038.038.075.075.113.075a4.6,4.6,0,0,1-.94,2.295c-.226.3-.376.6-.564.9l.075.075A12.889,12.889,0,0,0,42.384,8.8a10.465,10.465,0,0,1,.79,1.016A6.21,6.21,0,0,1,44,12.378a8.146,8.146,0,0,0,.15.94c.075.339.226.715.3,1.053a2.847,2.847,0,0,1,.038.564c.075-.113.113-.263.188-.376C44.453,19.488,41.143,23.664,37.381,23.664Z" transform="translate(439.784 691.5)"/>
        <path id="Path_26" data-name="Path 26" d="M39.3,66.017A3.487,3.487,0,0,0,38.063,64.1l-.075-.038A17.03,17.03,0,0,0,35.5,62.519a22.148,22.148,0,0,0-4.251-1.542l-.79-.226c-.414-.113-.79-.226-1.2-.339l-.376-.15a.508.508,0,0,0-.6.263l-3.273,5.906-.038-.075c-.226-.677-.414-1.354-.64-1.994l.075-.075c.3-.3.6-.64.9-.94l.226-.226a.489.489,0,0,0-.038-.715l-.15-.15c-.263-.226-.489-.451-.715-.677a.829.829,0,0,0-.564-.226H22.375a.982.982,0,0,0-.64.263c-.226.226-.451.414-.677.64l-.15.15a.512.512,0,0,0-.113.64A4.6,4.6,0,0,0,21.924,64.4l.038.038c-.188.677-.414,1.354-.64,2.031l-3.311-5.944a.489.489,0,0,0-.6-.226l-1.392.451c-1.241.376-2.445.752-3.649,1.166a14.766,14.766,0,0,0-3.536,1.768,4.45,4.45,0,0,0-1.994,2.972l-.038.15c-.038.113-.075.339-.113.527-.075.715-.113,1.392-.15,2.107L6.5,73.127a.566.566,0,0,0,.15.414.483.483,0,0,0,.376.15H39.3a.514.514,0,0,0,.527-.527C39.793,71.66,39.718,67.3,39.3,66.017ZM7.1,73.052l.038-3.574c.038-.715.113-1.392.15-2.107a2.54,2.54,0,0,1,.075-.527l.075-.113a3.951,3.951,0,0,1,1.73-2.6,12.938,12.938,0,0,1,3.386-1.693c1.2-.414,2.408-.79,3.649-1.166l1.317-.414,3.386,6.057a.482.482,0,0,0,.489.263.523.523,0,0,0,.451-.376l.038-.15c.226-.752.451-1.467.677-2.182a.752.752,0,0,0-.226-.64,3.832,3.832,0,0,1-.978-1.129l.113-.113c.226-.226.451-.414.677-.64a.4.4,0,0,1,.226-.075h1.693a.2.2,0,0,1,.15.075c.226.226.451.414.677.677l.113.075-.15.15c-.3.339-.6.64-.865.94a.606.606,0,0,0-.188.677c.226.64.414,1.317.64,1.994l.075.3a.583.583,0,0,0,.451.376.505.505,0,0,0,.527-.263l3.348-6.019.339.113c.414.113.79.226,1.2.339l.79.226a25.7,25.7,0,0,1,4.138,1.467,23.256,23.256,0,0,1,2.408,1.5l.075.038a2.826,2.826,0,0,1,.978,1.58,40.27,40.27,0,0,1,.451,6.847H7.1Z" transform="translate(454 656.106)"/>
        <path id="Path_27" data-name="Path 27" d="M73.766,73.672c.038-.263.075-.527.113-.828a.806.806,0,0,0-.677-.828,1.49,1.49,0,0,1-1.129-.865.972.972,0,0,0-1.279-.339,1.616,1.616,0,0,1-1.43.188.8.8,0,0,0-1.053.6,1.819,1.819,0,0,1-.978,1.241.661.661,0,0,0-.339.376.979.979,0,0,0,.113.9,2.836,2.836,0,0,1,.226.489,2.257,2.257,0,0,1-.075.865.952.952,0,0,0,.715,1.129,1.264,1.264,0,0,1,.978.752.734.734,0,0,0,.489.451c.15.038.263.075.414.113a.611.611,0,0,0,.564-.113,1.211,1.211,0,0,1,1.354-.226.95.95,0,0,0,1.166-.79,1.094,1.094,0,0,1,.752-.94.976.976,0,0,0,.376-1.392A.8.8,0,0,1,73.766,73.672ZM69.7,76l-1.392-1.73.527-.451.978,1.166,2.633-2.144.451.527Z" transform="translate(416.303 649.58)"/>
      </g>
    </g>
  </g>
</svg>
