<svg xmlns="http://www.w3.org/2000/svg" xmlns:xlink="http://www.w3.org/1999/xlink" width="60" height="60" viewBox="0 0 60 60">
  <defs>
    <clipPath id="clip-stepperIcon3">
      <rect width="60" height="60"/>
    </clipPath>
  </defs>
  <g id="stepperIcon3" clip-path="url(#clip-stepperIcon3)">
    <rect width="60" height="60" fill="#fff"/>
    <g id="Group_11" data-name="Group 11">
      <rect id="Rectangle_6" data-name="Rectangle 6" width="60" height="60" fill="#fff" opacity="0"/>
      <g id="Group_3" data-name="Group 3" transform="translate(-481 -433.998)">
        <path id="Path_6" data-name="Path 6" d="M41.3,33.8V25.2a.719.719,0,0,0-.014-.109.181.181,0,0,0-.008-.064.689.689,0,0,0-.067-.167l-3.1-5.576A2.092,2.092,0,0,0,36.275,18.2H29.4V15.4a2.8,2.8,0,0,0-2.8-2.8H25.2V5.747c0-.011-.006-.02-.006-.032,0-.039.006-.077.006-.116,0-3.14-4.3-5.6-9.8-5.6S5.6,2.46,5.6,5.6c0,.05,0,.1,0,.132a.122.122,0,0,0,0,.015V12.6H4.2a2.8,2.8,0,0,0-2.8,2.8V33.6A1.4,1.4,0,0,0,0,35v2.1a1.4,1.4,0,0,0,1.4,1.4H4.263a4.2,4.2,0,0,0,8.274,0H30.164a4.2,4.2,0,0,0,8.274,0H40.6A1.4,1.4,0,0,0,42,37.1V35a1.4,1.4,0,0,0-.7-1.205ZM36.275,19.6a.694.694,0,0,1,.613.361L39.411,24.5H34.3a.7.7,0,0,1-.7-.7V19.6Zm-4.074,0v4.2a2.1,2.1,0,0,0,2.1,2.1h5.6v7.7H29.4v-14ZM30.817,35.458l-.011.018a4.217,4.217,0,0,0-.25.433c-.022.042-.041.085-.062.127a4.279,4.279,0,0,0-.172.427c-.008.023-.018.045-.025.07a4.163,4.163,0,0,0-.125.512c0,.02-.01.037-.014.057H12.542c0-.02-.01-.037-.014-.057a4.164,4.164,0,0,0-.125-.512c-.008-.023-.017-.046-.025-.07a4.278,4.278,0,0,0-.172-.427c-.02-.043-.04-.085-.062-.127a4.216,4.216,0,0,0-.25-.433l-.011-.018a4.174,4.174,0,0,0-.317-.407c-.014-.016-.024-.034-.038-.05H31.173c-.014.015-.024.034-.039.05A4.174,4.174,0,0,0,30.817,35.458ZM7.6,9c.067.05.133.1.2.149.21.148.435.291.673.426.025.015.048.031.074.045.265.148.55.285.844.415.079.034.162.07.242.1q.344.14.708.267c.092.032.184.064.28.093.31.1.63.19.958.269l.055.015c.35.082.709.149,1.077.21.1.017.21.03.317.046q.42.059.85.1c.113.01.225.021.34.029.39.026.784.044,1.19.044s.8-.018,1.19-.044c.114-.008.225-.019.337-.029q.438-.038.86-.1c.1-.014.2-.027.3-.043a14.677,14.677,0,0,0,2.133-.5l.183-.062c.3-.1.6-.21.877-.331l.076-.032A8.426,8.426,0,0,0,23.8,8.514V11.2c0,2.276-3.85,4.2-8.4,4.2S7,13.477,7,11.2V8.506c.036.034.081.064.118.1q.225.2.478.394ZM7,14.126c.03.029.07.053.1.082a6.026,6.026,0,0,0,.49.4c.055.041.1.084.161.124a8.373,8.373,0,0,0,.741.47c.054.03.112.057.167.087.217.116.442.227.676.331.093.041.187.081.28.12q.333.14.687.258c.09.032.178.064.27.093.326.1.661.2,1.009.28.048.011.1.02.149.031q.456.1.935.179c.116.018.232.034.35.05q.411.057.834.094c.117.01.232.022.35.029.394.027.792.044,1.2.044s.806-.017,1.2-.044c.118-.008.233-.02.35-.029q.424-.038.834-.094c.117-.016.233-.032.35-.05q.479-.078.935-.179c.049-.011.1-.02.149-.031.35-.082.683-.177,1.009-.28.092-.029.179-.062.27-.093q.354-.12.687-.258c.1-.04.19-.079.28-.12.235-.1.459-.215.676-.331.055-.029.113-.057.167-.087a8.374,8.374,0,0,0,.741-.47c.057-.04.106-.083.161-.124q.259-.2.49-.4c.031-.029.07-.053.1-.082V16.8c0,2.276-3.85,4.2-8.4,4.2S7,19.077,7,16.8Zm0,5.6c.03.029.07.053.1.082a6.025,6.025,0,0,0,.49.4c.055.041.1.084.161.124a8.374,8.374,0,0,0,.741.47c.054.03.112.057.167.087.217.116.442.227.676.331.093.041.187.081.28.12q.333.14.687.258c.09.032.178.064.27.093.326.1.661.2,1.009.28.048.011.1.02.149.031q.456.1.935.179c.116.018.232.034.35.05q.411.057.834.094c.117.01.232.022.35.029.394.027.792.044,1.2.044s.806-.017,1.2-.044c.118-.008.233-.02.35-.029q.424-.038.834-.094c.117-.016.233-.032.35-.05q.479-.078.935-.179c.049-.011.1-.02.149-.031.35-.082.683-.177,1.009-.28.092-.029.179-.062.27-.093q.354-.12.687-.258c.1-.04.19-.079.28-.12.235-.1.459-.215.676-.331.055-.029.113-.057.167-.087a8.375,8.375,0,0,0,.741-.47c.057-.04.106-.083.161-.124q.259-.2.49-.4c.031-.029.07-.053.1-.082v2.528c0,2.356-3.85,4.347-8.4,4.347S7,24.61,7,22.254ZM15.4,1.4c4.55,0,8.4,1.924,8.4,4.2l-.006.11C23.677,7.927,19.832,9.8,15.4,9.8S7.124,7.927,7.007,5.71C7.005,5.69,7,5.62,7,5.6,7,3.324,10.85,1.4,15.4,1.4ZM2.8,15.4A1.4,1.4,0,0,1,4.2,14H5.6v8.253C5.6,25.477,9.9,28,15.4,28s9.8-2.524,9.8-5.747V14h1.4A1.4,1.4,0,0,1,28,15.4V33.6H2.8ZM1.4,35H5.272c-.014.015-.025.034-.039.05a4.174,4.174,0,0,0-.317.407l-.011.018a4.216,4.216,0,0,0-.25.433c-.022.042-.041.085-.062.127a4.278,4.278,0,0,0-.172.427c-.008.023-.018.045-.025.07a4.163,4.163,0,0,0-.125.512.335.335,0,0,1-.014.057H1.4Zm7,5.6a2.8,2.8,0,1,1,2.8-2.8A2.8,2.8,0,0,1,8.4,40.6Zm25.9,0a2.8,2.8,0,1,1,2.8-2.8A2.8,2.8,0,0,1,34.3,40.6Zm6.3-3.5H38.443c0-.02-.011-.037-.014-.057a4.164,4.164,0,0,0-.125-.512c-.007-.022-.017-.044-.024-.066a4.109,4.109,0,0,0-.173-.43c-.02-.042-.039-.083-.059-.125a4.3,4.3,0,0,0-.255-.441l-.006-.011a4.156,4.156,0,0,0-.321-.413c-.013-.014-.022-.031-.035-.045H40.6Z" transform="translate(490 442.998)"/>
        <path id="Path_7" data-name="Path 7" d="M12.44,8.061a.7.7,0,0,0,.935-.324.856.856,0,0,1,.265-.291.7.7,0,1,0-.832-1.12,2.207,2.207,0,0,0-.692.8A.7.7,0,0,0,12.44,8.061Z" transform="translate(486.386 441.153)"/>
        <path id="Path_8" data-name="Path 8" d="M17.849,5.669A12.476,12.476,0,0,1,20.5,5.4a11.926,11.926,0,0,1,3.306.434A.718.718,0,0,0,24,5.861a.7.7,0,0,0,.195-1.371A13.333,13.333,0,0,0,20.5,4a13.944,13.944,0,0,0-2.949.3.7.7,0,0,0,.3,1.369Z" transform="translate(484.901 441.799)"/>
        <path id="Path_9" data-name="Path 9" d="M12,41.533a.7.7,0,0,0-.245-.959,5.771,5.771,0,0,1-.625-.425.7.7,0,1,0-.864,1.1,7.221,7.221,0,0,0,.775.528A.7.7,0,0,0,12,41.533Z" transform="translate(487 430.999)"/>
        <path id="Path_10" data-name="Path 10" d="M15.525,43.654a18.373,18.373,0,0,0,8.75,0,.7.7,0,0,0-.35-1.356,17.268,17.268,0,0,1-8.05,0,.7.7,0,1,0-.35,1.356Z" transform="translate(485.5 430.316)"/>
        <path id="Path_11" data-name="Path 11" d="M31.7,41.877a.694.694,0,0,0,.356-.1,7.222,7.222,0,0,0,.775-.528.7.7,0,0,0-.864-1.1,5.841,5.841,0,0,1-.625.425.7.7,0,0,0,.358,1.3Z" transform="translate(480.701 430.999)"/>
        <path id="Path_12" data-name="Path 12" d="M12.1,53H10.7a.7.7,0,0,0,0,1.4h1.4a.7.7,0,1,0,0-1.4Z" transform="translate(487 427.1)"/>
        <path id="Path_13" data-name="Path 13" d="M49.1,53H47.7a.7.7,0,1,0,0,1.4h1.4a.7.7,0,0,0,0-1.4Z" transform="translate(475.901 427.1)"/>
      </g>
    </g>
  </g>
</svg>
