<svg xmlns="http://www.w3.org/2000/svg" xmlns:xlink="http://www.w3.org/1999/xlink" width="243.682" height="120.342" viewBox="0 0 243.682 120.342">
  <defs>
    <linearGradient id="linear-gradient" x1="0.5" y1="0.22" x2="0.5" y2="0.78" gradientUnits="objectBoundingBox">
      <stop offset="0" stop-color="#29cb97" stop-opacity="0.2"/>
      <stop offset="1" stop-color="#fff" stop-opacity="0"/>
    </linearGradient>
  </defs>
  <g id="Group_430" data-name="Group 430" transform="translate(-1255.605 -1014.202)">
    <path id="Path_2" data-name="Path 2" d="M0,34.692a32.06,32.06,0,0,1,20.223,3.172c20.464,10.334,21.632-8.59,29.22-17.715C56.386,11.8,62.135,16.894,69.865,27.1c5.7,7.53,14.01,20.17,22.614,18.135,7.866-1.86,13.441-16.685,24.344-20.455,8.641-2.988,15.663,5.221,25.613,2.32,13.5-3.935,15.509-19.01,25.156-19.01,11.907,0,19.363,26.9,30.2,26.9,10.767,0,16.307-26.592,28.086-18.519,9,6.171,14.2-16.473,14.2-16.473" transform="translate(1257.412 1016)" fill="none" stroke="#29cb97" stroke-linecap="round" stroke-linejoin="round" stroke-miterlimit="10" stroke-width="3"/>
    <path id="Path_398" data-name="Path 398" d="M3141.587,1239.481s5.8-2.535,9.842,0a29.28,29.28,0,0,0,10.18,4.309c4.046,1.015,5.776,2.667,9.121,2.028s10.075-5.89,10.828-8.624,3.77-10.487,7.364-12.911,7.154-5.854,9.914-2.565,12.149,13.791,12.149,13.791,8.627,11.01,11.764,12.471,6.347,3.291,8.5,2.65,6.308-2.517,8-4.81,8.3-14.133,15.613-14.942a41.323,41.323,0,0,1,14.729,1.5s1.955-1,6.4,0,7.736,2.917,11.715-1.5,11.088-16.264,15.339-16.358,9.2.054,12.162,4.279,12.007,15.849,16.516,18.4,7.744,2.282,11.781-1.686,8.441-12.8,11.888-13.791,5.515-.854,7.789,0,4.2,2.239,7.177,0,9.253-16.831,9.253-16.831v119.544h-242v-84.95Z" transform="translate(-1881.454 -189.887)" fill="url(#linear-gradient)"/>
  </g>
</svg>
