<svg xmlns="http://www.w3.org/2000/svg" xmlns:xlink="http://www.w3.org/1999/xlink" width="68" height="68" viewBox="0 0 68 68">
  <defs>
    <clipPath id="clip-firstNodeIcon">
      <rect width="68" height="68"/>
    </clipPath>
  </defs>
  <g id="firstNodeIcon" clip-path="url(#clip-firstNodeIcon)">
    <rect width="68" height="68" fill="#fff"/>
    <path id="Path_6" data-name="Path 6" d="M90.047,62.767a4.442,4.442,0,0,0-7.813-1.107L78.5,59.868l1.408-2.431a.742.742,0,0,0,0-.749l-2.8-4.834,4.73-2.675a4.42,4.42,0,0,0,7.7-1.613,4.39,4.39,0,0,0-.42-3.367,4.467,4.467,0,0,0-6.061-1.67,4.411,4.411,0,0,0-1.981,5.361l-4.715,2.666-1.844-3.184A.746.746,0,0,0,73.866,47H69.219V41.01a4.447,4.447,0,1,0-1.5,0V47H63.075a.746.746,0,0,0-.647.375L60.27,51.1l-1.612-.78A4.409,4.409,0,0,0,56.323,45.1a4.46,4.46,0,0,0-5.937,2.07,4.42,4.42,0,0,0,7.588,4.48l1.544.747-2.486,4.291a.742.742,0,0,0,0,.749l1.693,2.922-2.909,1.533A4.44,4.44,0,0,0,48.084,63.5a4.39,4.39,0,0,0,.42,3.367,4.45,4.45,0,0,0,8.155-1.012,4.381,4.381,0,0,0-.1-2.662l2.92-1.539,2.954,5.1a.746.746,0,0,0,.647.375h4.646v1.86a4.448,4.448,0,1,0,1.5,0v-1.86h4.648a.746.746,0,0,0,.647-.375l3.237-5.588,3.831,1.84a4.43,4.43,0,0,0,4.257,5.655,4.459,4.459,0,0,0,4.015-2.508A4.4,4.4,0,0,0,90.047,62.767ZM82.4,45.609a2.952,2.952,0,0,1,2.839-2.159,2.957,2.957,0,0,1,2.572,1.491A2.932,2.932,0,0,1,86.7,48.947a2.955,2.955,0,0,1-4.02-1.106h0l0,0A2.9,2.9,0,0,1,82.4,45.609ZM57.05,50.372a2.954,2.954,0,0,1-5.444-.309,2.909,2.909,0,0,1,.128-2.243,2.964,2.964,0,0,1,3.942-1.372,2.933,2.933,0,0,1,1.374,3.924ZM55.216,65.456a2.919,2.919,0,0,1-1.388,1.778A2.957,2.957,0,0,1,49.8,66.125a2.942,2.942,0,0,1,2.561-4.386,2.955,2.955,0,0,1,2.572,1.489A2.9,2.9,0,0,1,55.216,65.456ZM73.435,48.5l1.62,2.8-2.591,1.465a5.867,5.867,0,0,0-3.246-1.5V48.5h4.216ZM65.521,36.651a2.95,2.95,0,1,1,2.949,2.938A2.948,2.948,0,0,1,65.521,36.651ZM63.506,48.5h4.215v2.757a5.871,5.871,0,0,0-3.508,1.754L61.62,51.752Zm-4.964,8.566,2.325-4.012,2.457,1.189a5.8,5.8,0,0,0-.755,2.822,5.863,5.863,0,0,0,.126,1.2l-2.647,1.4Zm4.964,8.568L60.8,60.956l2.416-1.273a5.878,5.878,0,0,0,4.507,3.19V65.63H63.506Zm7.914,7.718a2.95,2.95,0,1,1-2.95-2.938A2.948,2.948,0,0,1,71.42,73.348Zm-2.95-11.9a4.387,4.387,0,1,1,4.4-4.388A4.4,4.4,0,0,1,68.47,61.45Zm4.965,4.18H69.219V62.873a5.9,5.9,0,0,0,4.7-3.549L76.4,60.516Zm3.714-6.412-2.857-1.372a5.292,5.292,0,0,0-.848-3.921l2.362-1.336L78.4,57.062ZM88.505,65.5a2.961,2.961,0,0,1-3.942,1.372,2.933,2.933,0,0,1-1.374-3.924,2.963,2.963,0,0,1,3.939-1.372A2.936,2.936,0,0,1,88.505,65.5Z" transform="translate(-35.108 -20.213)"/>
  </g>
</svg>
