<svg xmlns="http://www.w3.org/2000/svg" width="37.712" height="51.766" viewBox="0 0 37.712 51.766">
  <path id="Union_2" data-name="Union 2" d="M-786.145,342.764l-6.362-15.155a18.792,18.792,0,0,1-8.977-6.787A18.719,18.719,0,0,1-805,309.856a18.732,18.732,0,0,1,5.522-13.333A18.733,18.733,0,0,1-786.144,291a18.732,18.732,0,0,1,13.333,5.523,18.732,18.732,0,0,1,5.523,13.333,18.726,18.726,0,0,1-3.515,10.966,18.8,18.8,0,0,1-8.977,6.787l-6.362,15.155v0Zm-16-32.882a16.018,16.018,0,0,0,16,16,16.019,16.019,0,0,0,16-16,16.019,16.019,0,0,0-16-16A16.019,16.019,0,0,0-802.144,309.883Zm13.675,9.382a1.026,1.026,0,0,1-.2-1.04l1.8-4.927-2.653.675a5.625,5.625,0,0,1-1.361.168,5.373,5.373,0,0,1-1.049-.1l-3.387-.66a2.527,2.527,0,0,1-1.963-1.851l-1.139-4.468a.535.535,0,0,1,.059-.4.516.516,0,0,1,.321-.242l1.156-.3a1.028,1.028,0,0,1,.981.274l1.8,1.825a1.47,1.47,0,0,0,1.4.391l4.342-1.108-3.793-3.138a1.016,1.016,0,0,1-.347-1.013,1.031,1.031,0,0,1,.749-.77l1.646-.421a2.536,2.536,0,0,1,1.64.137l7.5,3.318,1.836-.47a5.52,5.52,0,0,1,3.081.105l2.775.913c.005.005.005.005.01.005a1.951,1.951,0,0,1,1.251,1.345,1.962,1.962,0,0,1-.206,1.471,1.892,1.892,0,0,1-1.176.876l-6,1.53-4.99,6.8a2.516,2.516,0,0,1-1.409.949l-1.656.422a1.065,1.065,0,0,1-.254.031A1.03,1.03,0,0,1-788.468,319.264Zm2.833-6.294-2.031,5.549,1.6-.406a1.474,1.474,0,0,0,.818-.553l4.23-5.772Zm-11.632-5.66,1.007,3.956a1.461,1.461,0,0,0,1.139,1.076l3.387.659a4.484,4.484,0,0,0,1.947-.058l16.126-4.115a.867.867,0,0,0,.533-.4.853.853,0,0,0,.089-.654.9.9,0,0,0-.57-.612l-2.769-.913a4.447,4.447,0,0,0-2.489-.085l-13.573,3.466a2.547,2.547,0,0,1-2.417-.675l-1.783-1.81Zm7.417-4.13-1.589.406,4.342,3.6,4.478-1.149-6.277-2.775a1.472,1.472,0,0,0-.593-.124A1.491,1.491,0,0,0-789.85,303.18Z" transform="translate(805 -291)" fill="red"/>
</svg>
