<svg xmlns="http://www.w3.org/2000/svg" xmlns:xlink="http://www.w3.org/1999/xlink" width="68" height="68" viewBox="0 0 68 68">
  <defs>
    <clipPath id="clip-returnscenterIcon">
      <rect width="68" height="68"/>
    </clipPath>
  </defs>
  <g id="returnscenterIcon" clip-path="url(#clip-returnscenterIcon)">
    <rect width="68" height="68" fill="#fff"/>
    <g id="Group_3" data-name="Group 3" transform="translate(6 4.525)">
      <path id="Path_7" data-name="Path 7" d="M45.753,48.515A.772.772,0,0,1,45,47.762V45.253a.753.753,0,0,1,1.506,0v2.509A.772.772,0,0,1,45.753,48.515Z" transform="translate(-19.926 -17.448)"/>
      <path id="Path_8" data-name="Path 8" d="M52.753,48.515A.772.772,0,0,1,52,47.762V45.253a.753.753,0,0,1,1.506,0v2.509A.772.772,0,0,1,52.753,48.515Z" transform="translate(-23.413 -17.448)"/>
      <path id="Path_9" data-name="Path 9" d="M44.994,59.254a6.759,6.759,0,0,1-4.818-2.007.745.745,0,1,1,1.054-1.054,5.232,5.232,0,0,0,3.764,1.556,5.331,5.331,0,0,0,4.517-2.559,4.926,4.926,0,0,0,.652-1.606.738.738,0,0,1,1.455.251,5.767,5.767,0,0,1-.853,2.058A6.581,6.581,0,0,1,44.994,59.254Z" transform="translate(-17.41 -21.663)"/>
      <path id="Path_10" data-name="Path 10" d="M29.253,55.076a.772.772,0,0,1-.753-.753V35.253a.753.753,0,1,1,1.506,0v19.07A.772.772,0,0,1,29.253,55.076Z" transform="translate(-11.707 -12.466)"/>
      <path id="Path_11" data-name="Path 11" d="M19.253,55.076a.772.772,0,0,1-.753-.753V35.253a.753.753,0,1,1,1.506,0v19.07A.772.772,0,0,1,19.253,55.076Z" transform="translate(-6.725 -12.466)"/>
      <path id="Path_12" data-name="Path 12" d="M69.253,55.076a.772.772,0,0,1-.753-.753V35.253a.753.753,0,1,1,1.506,0v19.07A.772.772,0,0,1,69.253,55.076Z" transform="translate(-31.633 -12.466)"/>
      <path id="Path_13" data-name="Path 13" d="M79.253,55.076a.772.772,0,0,1-.753-.753V35.253a.753.753,0,1,1,1.506,0v19.07A.772.772,0,0,1,79.253,55.076Z" transform="translate(-36.614 -12.466)"/>
      <path id="Path_14" data-name="Path 14" d="M49.4,21.03H15.772a.708.708,0,0,1-.7-.552.742.742,0,0,1,.351-.853L32.232,9.588a.682.682,0,0,1,.753,0l16.762,9.987a.787.787,0,0,1,.452.7A.857.857,0,0,1,49.4,21.03ZM18.482,19.524H46.635L32.584,11.093Z" transform="translate(-5.001)"/>
      <path id="Path_15" data-name="Path 15" d="M49.376,79.006H15.753a.753.753,0,1,1,0-1.506H49.376a.753.753,0,0,1,0,1.506Z" transform="translate(-4.982 -33.887)"/>
      <path id="Path_16" data-name="Path 16" d="M49.395,84.006H10.753a.753.753,0,0,1,0-1.506H49.395a.753.753,0,1,1,0,1.506Z" transform="translate(-2.491 -36.378)"/>
      <path id="Path_17" data-name="Path 17" d="M49.413,89.006H5.753a.753.753,0,0,1,0-1.506H49.413a.753.753,0,0,1,0,1.506Z" transform="translate(0 -38.868)"/>
    </g>
  </g>
</svg>
