<svg xmlns="http://www.w3.org/2000/svg" xmlns:xlink="http://www.w3.org/1999/xlink" width="60" height="60" viewBox="0 0 60 60">
  <defs>
    <clipPath id="clip-stepperIcon2">
      <rect width="60" height="60"/>
    </clipPath>
  </defs>
  <g id="stepperIcon2" clip-path="url(#clip-stepperIcon2)">
    <rect width="60" height="60" fill="#fff"/>
    <g id="Group_15" data-name="Group 15">
      <rect id="Rectangle_6" data-name="Rectangle 6" width="60" height="60" fill="#fff" opacity="0"/>
      <g id="Group_14" data-name="Group 14" transform="translate(562.58 -254.419)">
        <g id="Group_13" data-name="Group 13" transform="translate(-553 264)">
          <path id="Path_28" data-name="Path 28" d="M76.129,64H73.17a.653.653,0,0,0-.6.406L66.971,78.155a.418.418,0,0,1-.3.2H57a.382.382,0,0,1-.274-.187l-.9-2.422h3.667a.652.652,0,1,0,0-1.3H55.338l-.73-1.957h6.841a.652.652,0,1,0,0-1.3s-7.275.007-7.322.017l-.737-1.975h13.2a.652.652,0,1,0,0-1.3H53.109a1.074,1.074,0,0,0-1.041,1.492l3.437,9.215A1.669,1.669,0,0,0,57,79.659h9.67a1.709,1.709,0,0,0,1.508-1.011L73.609,65.3h2.52a.652.652,0,0,0,0-1.3Z" transform="translate(-35.019 -43.122)"/>
          <path id="Path_29" data-name="Path 29" d="M87.957,116a1.957,1.957,0,1,0,1.957,1.957A1.957,1.957,0,0,0,87.957,116Zm0,2.61a.652.652,0,1,1,.652-.652A.652.652,0,0,1,87.957,118.61Z" transform="translate(-57.939 -78.158)"/>
          <path id="Path_30" data-name="Path 30" d="M69.957,116a1.957,1.957,0,1,0,1.957,1.957A1.957,1.957,0,0,0,69.957,116Zm0,2.61a.652.652,0,1,1,.652-.652A.652.652,0,0,1,69.957,118.61Z" transform="translate(-45.811 -78.158)"/>
          <path id="Path_31" data-name="Path 31" d="M54.435,48.785V39.651A.652.652,0,0,0,53.783,39H44.649a.652.652,0,0,0-.652.652v.525l1.3.545V40.3H53.13v7.829H45.444l-.032,0-.028,0H45.3v0a3.236,3.236,0,0,1-1.179-.264L44,47.816v.969a.652.652,0,0,0,.652.652h9.134a.652.652,0,0,0,.652-.652Z" transform="translate(-29.638 -26.276)"/>
          <path id="Path_32" data-name="Path 32" d="M13.911,7.829A3.915,3.915,0,1,0,10,3.914a3.915,3.915,0,0,0,3.915,3.915Zm0-6.524a2.61,2.61,0,1,1-2.61,2.61A2.61,2.61,0,0,1,13.911,1.3Z" transform="translate(-6.729)"/>
          <path id="Path_33" data-name="Path 33" d="M25.085,42.471a.625.625,0,0,1-.828.3c-.014-.007-8.628-3.292-8.628-3.292a.652.652,0,1,0-.465,1.219l8.567,3.267a1.948,1.948,0,0,0,1.462.052,1.9,1.9,0,0,0,1.079-1c.078-.17.157-.341.237-.51a1.91,1.91,0,0,0-.9-2.563L13.9,35.048a.653.653,0,0,0-.5,1.2l11.662,4.87a.618.618,0,0,1,.269.825C25.246,42.122,25.165,42.3,25.085,42.471Z" transform="translate(-8.75 -23.581)"/>
          <path id="Path_34" data-name="Path 34" d="M11.73,40.842a.653.653,0,0,1-.652.652H3.249a.653.653,0,0,1-.652-.652V28.42A3.18,3.18,0,0,1,5.4,25.2,5.218,5.218,0,0,1,3.832,24.3,4.555,4.555,0,0,0,1.291,28.42V40.842a1.95,1.95,0,0,0,.636,1.44l1.059,4.524L.125,55.177a1.837,1.837,0,0,0,.883,2.358l.99.45a1.667,1.667,0,0,0,1.3.029,1.831,1.831,0,0,0,1.005-1l3.952-9.033a3,3,0,0,0,.195-1.432L7.921,42.8h2.831V56.1a.692.692,0,0,1-.653.725h-1.3a.692.692,0,0,1-.652-.725v-4.61l-1.3,2.983V56.1a2,2,0,0,0,1.957,2.03h1.3a2,2,0,0,0,1.958-2.03V42.535a1.957,1.957,0,0,0,.979-1.693V37.419l-1.3-.5ZM7.058,47.46,3.1,56.5a.448.448,0,0,1-.564.293l-.99-.45a.534.534,0,0,1-.207-.692l.014-.038,2.929-8.566a.652.652,0,0,0,.018-.36L3.389,42.8H6.6l.553,3.93A1.756,1.756,0,0,1,7.058,47.46Z" transform="translate(0.018 -16.376)"/>
          <path id="Path_35" data-name="Path 35" d="M27.393,25.2A3.179,3.179,0,0,1,30.2,28.42v.765l1.3.545V28.42a4.556,4.556,0,0,0-2.54-4.116A5.217,5.217,0,0,1,27.393,25.2Z" transform="translate(-18.451 -16.376)"/>
        </g>
      </g>
    </g>
  </g>
</svg>
