<svg xmlns="http://www.w3.org/2000/svg" xmlns:xlink="http://www.w3.org/1999/xlink" width="60" height="60" viewBox="0 0 60 60">
  <defs>
    <clipPath id="clip-stepperIcon1">
      <rect width="60" height="60"/>
    </clipPath>
  </defs>
  <g id="stepperIcon1" clip-path="url(#clip-stepperIcon1)">
    <rect width="60" height="60" fill="#fff"/>
    <g id="Group_12" data-name="Group 12">
      <rect id="Rectangle_6" data-name="Rectangle 6" width="60" height="60" fill="#fff" opacity="0"/>
      <g id="Group_1" data-name="Group 1" transform="translate(-184 -403)">
        <path id="Path_1" data-name="Path 1" d="M41.332,17.332A.667.667,0,0,0,42,16.665V14a.675.675,0,0,0-.327-.573l-5.007-2.933V2.666A.667.667,0,0,0,36,2H30.666A.667.667,0,0,0,30,2.666v3.92l-7.66-4.493a.656.656,0,0,0-.68,0L2.327,13.426A.675.675,0,0,0,2,14v2.667a.667.667,0,0,0,.667.667h2V32h-2A.667.667,0,0,0,2,32.665V36a.667.667,0,0,0,.667.667H9.333v.667A.667.667,0,0,0,10,38v1.333a.667.667,0,0,0,.667.667h2.28a3.333,3.333,0,0,0,6.106,0h9.226a3.333,3.333,0,0,0,6.106,0H36a.667.667,0,0,0,.667-.667V38a.667.667,0,0,0,.667-.667v-.667h4A.667.667,0,0,0,42,36V32.665A.667.667,0,0,0,41.332,32H40V17.332Zm-10-14h4V9.706l-4-2.34Zm-22,32h-6v-2h6Zm3.333,3.333H11.333V38h1.4a3.645,3.645,0,0,0-.067.667Zm3.333,2a2,2,0,1,1,2-2,2,2,0,0,1-2,2Zm2.647-4a3.293,3.293,0,0,0-5.293,0H10.666v-12H26v12Zm9.353,2H19.333A3.645,3.645,0,0,0,19.266,38h8.8a3.645,3.645,0,0,0-.067.667Zm3.333,2a2,2,0,1,1,2-2,2,2,0,0,1-2,2Zm4-2h-.667A3.645,3.645,0,0,0,34.6,38h.733Zm.667-2h-2.02a3.293,3.293,0,0,0-5.293,0H27.333V32h7.113L36,33.845Zm-8.666-6V25.332h2.48a2,2,0,0,1,1.96,1.607l.747,3.727Zm13.333,2.667v2H37.332V33.6a.66.66,0,0,0-.067-.273ZM39.332,16a.667.667,0,0,0-.667.667V32h-2.48l-.913-1.093a.661.661,0,0,0-.513-.24h-.88l-.8-3.987A3.333,3.333,0,0,0,29.813,24h-2.48a.667.667,0,0,0-.667-.667H10A.667.667,0,0,0,9.333,24v8H6V16.665A.667.667,0,0,0,5.333,16h-2v-1.62L22,3.439l18.666,10.94V16Z" transform="translate(192 411.003)"/>
        <path id="Path_2" data-name="Path 2" d="M30,12a4,4,0,1,0,4,4A4,4,0,0,0,30,12Zm0,6.666A2.667,2.667,0,1,1,32.666,16,2.667,2.667,0,0,1,30,18.666Z" transform="translate(184 407.668)"/>
        <path id="Path_3" data-name="Path 3" d="M28,38H20.667a.667.667,0,0,0-.667.667V46a.667.667,0,0,0,.667.667H28A.667.667,0,0,0,28.666,46V38.667A.667.667,0,0,0,28,38Zm-.667,7.333h-6v-4h6Zm0-5.333h-6v-.667h6Z" transform="translate(186 399.001)"/>
        <rect id="Rectangle_5" data-name="Rectangle 5" width="2" height="2" transform="translate(207.999 442)"/>
      </g>
    </g>
  </g>
</svg>
