<svg xmlns="http://www.w3.org/2000/svg" xmlns:xlink="http://www.w3.org/1999/xlink" width="60" height="60" viewBox="0 0 60 60">
  <defs>
    <clipPath id="clip-stepperIcon4">
      <rect width="60" height="60"/>
    </clipPath>
  </defs>
  <g id="stepperIcon4" clip-path="url(#clip-stepperIcon4)">
    <rect width="60" height="60" fill="#fff"/>
    <g id="Group_10" data-name="Group 10">
      <rect id="Rectangle_6" data-name="Rectangle 6" width="60" height="60" fill="#fff" opacity="0"/>
      <g id="Group_4" data-name="Group 4" transform="translate(-606 -456)">
        <path id="Path_14" data-name="Path 14" d="M.611,63.237a.611.611,0,0,0,.611-.611V52.933L12.3,57.238a1.982,1.982,0,0,0,2.139-.266,1.833,1.833,0,0,0,.367-.458l.611-1.173a1.6,1.6,0,0,0,.061-1.253,2.044,2.044,0,0,0-1.091-1.146l-.241-.092h6.447a2.047,2.047,0,0,0,1.479-.565l.052-.061.037.015c.1.064,2.888,1.3,2.888,1.3V56.82a.611.611,0,1,0,1.222,0V54.07l5.769,2.536a2.231,2.231,0,0,0,1.94-.159,2.341,2.341,0,0,0,.794-.831l2.27-3.728A.612.612,0,0,0,36,51.253l-2.289,3.758-.037.07a.984.984,0,0,1-1.094.425l-9.607-4.217a.788.788,0,0,1-.434-.422.306.306,0,0,1,0-.263l.55-1.118a.75.75,0,0,1,.932-.144l7.333,3.135a.959.959,0,0,0,1.265-.425l2.716-4.861a.615.615,0,1,0-1.066-.611l-2.616,4.681L28.02,49.706l2.3-5.164a1.833,1.833,0,0,0-.944-2.389l-.587-.254c.079-.043.159-.086.241-.128a5.806,5.806,0,0,1-1.106-.785,5.691,5.691,0,0,0-.474.33l-6.67-2.9a1.845,1.845,0,0,0-2.42.941l-3.447,7.728a1.809,1.809,0,0,0-.141.984l-.715.015v-2.09a5.913,5.913,0,0,0-2.863-5.011,5.824,5.824,0,0,1-1.109.782,4.733,4.733,0,0,1,2.75,4.229v6.356l-7.37-2.8.877-2.289a.613.613,0,0,0-1.146-.437l-.956,2.5a.932.932,0,0,0,.513,1.268L13.9,54.07a.825.825,0,0,1,.431.437.373.373,0,0,1,0,.287l-.611,1.173a.7.7,0,0,1-.917.162l-11.584-4.5V45.991a4.767,4.767,0,0,1,3.1-4.385,5.83,5.83,0,0,1-1.082-.843A5.943,5.943,0,0,0,0,45.991V62.626A.611.611,0,0,0,.611,63.237ZM16.027,47.58l3.441-7.728a.626.626,0,0,1,.574-.37.611.611,0,0,1,.241.049l8.6,3.734a.611.611,0,0,1,.306.794l-2.3,5.182-2.377-1.018A1.908,1.908,0,0,0,22,48.946l-.535,1.121a1.482,1.482,0,0,0-.144.471l-4.981-2.163a.611.611,0,0,1-.306-.794ZM14.056,49.3l1.43-.024a1.815,1.815,0,0,0,.367.217l4.889,2.124a.916.916,0,0,1-.134,0H14.056Z" transform="translate(616 439.431)"/>
        <path id="Path_15" data-name="Path 15" d="M9,22.583A4.583,4.583,0,1,0,13.583,18,4.583,4.583,0,0,0,9,22.583Zm7.945,0a3.361,3.361,0,1,1-3.361-3.361A3.361,3.361,0,0,1,16.945,22.583Z" transform="translate(609.75 453.5)"/>
        <ellipse id="Ellipse_1" data-name="Ellipse 1" cx="0.5" cy="1" rx="0.5" ry="1" transform="translate(629 498)"/>
        <path id="Path_16" data-name="Path 16" d="M93.583,27.167A4.583,4.583,0,1,0,89,22.583,4.583,4.583,0,0,0,93.583,27.167Zm0-7.945a3.361,3.361,0,1,1-3.361,3.361A3.361,3.361,0,0,1,93.583,19.222Z" transform="translate(554.195 453.5)"/>
        <ellipse id="Ellipse_2" data-name="Ellipse 2" cx="0.5" cy="1" rx="0.5" ry="1" transform="translate(641 498)"/>
        <path id="Path_17" data-name="Path 17" d="M64.112,91.537a.611.611,0,0,0-.611-.611H60.53a.611.611,0,0,0-.862-.816l-1.393.917a.611.611,0,0,0,0,1.021l1.393.917a.611.611,0,0,0,.862-.816H63.5A.611.611,0,0,0,64.112,91.537Z" transform="translate(575.722 403.492)"/>
        <path id="Path_18" data-name="Path 18" d="M.611,1.222H12.834a.611.611,0,0,1,.611.611V5.5a.611.611,0,0,0,1.222,0V1.833A1.833,1.833,0,0,0,12.834,0H.611a.611.611,0,0,0,0,1.222Z" transform="translate(616 466)"/>
        <path id="Path_19" data-name="Path 19" d="M38.5,116a.611.611,0,0,0-.611.611v1.833H.611a.611.611,0,1,0,0,1.222H38.5a.611.611,0,0,0,.611-.611v-2.445A.611.611,0,0,0,38.5,116Z" transform="translate(616 385.445)"/>
        <path id="Path_20" data-name="Path 20" d="M.611,9.222H3.972A.611.611,0,1,0,3.972,8H.611a.611.611,0,1,0,0,1.222Z" transform="translate(616 460.444)"/>
        <path id="Path_21" data-name="Path 21" d="M114.952,46.45a5.831,5.831,0,0,1-1.082.843,4.767,4.767,0,0,1,3.1,4.385v14.19a.611.611,0,1,0,1.222,0V51.678a5.943,5.943,0,0,0-3.236-5.228Z" transform="translate(536.924 433.743)"/>
      </g>
    </g>
  </g>
</svg>
