<svg xmlns="http://www.w3.org/2000/svg" xmlns:xlink="http://www.w3.org/1999/xlink" width="38" height="52" viewBox="0 0 38 52">
  <defs>
    <clipPath id="clip-truck-red-link">
      <rect width="38" height="52"/>
    </clipPath>
  </defs>
  <g id="truck-red-link" clip-path="url(#clip-truck-red-link)">
    <g id="Group_1" data-name="Group 1" transform="translate(-666 87)">
      <path id="Union_1" data-name="Union 1" d="M-678.145,342.764l-6.362-15.155a18.792,18.792,0,0,1-8.977-6.787A18.719,18.719,0,0,1-697,309.856a18.732,18.732,0,0,1,5.522-13.333A18.733,18.733,0,0,1-678.144,291a18.732,18.732,0,0,1,13.333,5.523,18.732,18.732,0,0,1,5.523,13.333,18.726,18.726,0,0,1-3.515,10.966,18.8,18.8,0,0,1-8.977,6.787l-6.362,15.155h0Zm-16-32.882a16.018,16.018,0,0,0,16,16,16.019,16.019,0,0,0,16-16,16.019,16.019,0,0,0-16-16A16.019,16.019,0,0,0-694.145,309.882Z" transform="translate(1363 -378)" fill="#ff0303"/>
      <path id="Union_1-2" data-name="Union 1" d="M-672.734,315.982h-7.825a2.863,2.863,0,0,1-2.81,2.317,2.862,2.862,0,0,1-2.81-2.317h-.63a2.284,2.284,0,0,1-1.681-.709,2.363,2.363,0,0,1-.682-1.68l.236-11.134a.526.526,0,0,1,.526-.526h11.554a2.915,2.915,0,0,1,2.888,2.626h5.279a.526.526,0,0,1,.446.236l3.046,4.675a.623.623,0,0,1,.079.315l-.472,5.016a1.287,1.287,0,0,1-1.313,1.182h-.237a2.836,2.836,0,0,1-2.8,2.365,2.837,2.837,0,0,1-2.793-2.37Zm1.493-1.8a1.813,1.813,0,0,0-.375,1.984,1.814,1.814,0,0,0,1.692,1.1,1.812,1.812,0,0,0,1.786-1.813,1.81,1.81,0,0,0-1.124-1.676,1.809,1.809,0,0,0-.687-.135,1.815,1.815,0,0,0-1.291.539Zm-13.939,1.272a1.812,1.812,0,0,0,1.812,1.813,1.812,1.812,0,0,0,1.812-1.813,1.811,1.811,0,0,0-.53-1.282,1.811,1.811,0,0,0-1.282-.53,1.811,1.811,0,0,0-1.811,1.811Zm18.04-.525h.237a.239.239,0,0,0,.185-.059.241.241,0,0,0,.078-.177l.419-4.385h-7.3l.394,4.621h.393a2.837,2.837,0,0,1,2.8-2.365,2.836,2.836,0,0,1,2.8,2.364Zm-20.981-1.339a1.257,1.257,0,0,0,.393.945,1.237,1.237,0,0,0,.92.394h.63a2.863,2.863,0,0,1,2.81-2.311,2.864,2.864,0,0,1,2.81,2.311h6.381l-.841-10.267a1.865,1.865,0,0,0-1.838-1.681h-11.056Zm14.522-4.333h7.011l-2.39-3.65h-4.91Z" transform="translate(1363 -378.466)" fill="#28a745"/>
    </g>
  </g>
</svg>
