<svg xmlns="http://www.w3.org/2000/svg" xmlns:xlink="http://www.w3.org/1999/xlink" width="38" height="52" viewBox="0 0 38 52">
  <defs>
    <clipPath id="clip-truck2">
      <rect width="38" height="52"/>
    </clipPath>
  </defs>
  <g id="truck2" clip-path="url(#clip-truck2)">
    <g id="Group_4" data-name="Group 4">
      <path id="Union_1" data-name="Union 1" d="M-678.145,342.764l-6.362-15.155a18.792,18.792,0,0,1-8.977-6.787A18.719,18.719,0,0,1-697,309.856a18.732,18.732,0,0,1,5.522-13.333A18.733,18.733,0,0,1-678.144,291a18.732,18.732,0,0,1,13.333,5.523,18.732,18.732,0,0,1,5.523,13.333,18.726,18.726,0,0,1-3.515,10.966,18.8,18.8,0,0,1-8.977,6.787l-6.362,15.155h0Zm-16-32.882a16.018,16.018,0,0,0,16,16,16.019,16.019,0,0,0,16-16,16.019,16.019,0,0,0-16-16,16.019,16.019,0,0,0-16,16Z" transform="translate(697 -291)" fill="#28a745"/>
      <g id="Group_2" data-name="Group 2" transform="translate(-573.6 -665.617)">
        <path id="Compound_Path" data-name="Compound Path" d="M12.969,15.8H6.527a.555.555,0,0,0-.555.555V21.8H5.694a.555.555,0,0,0-.555.555v3H3.555A.555.555,0,0,0,3,25.906V30.96a1.666,1.666,0,0,0,1.666,1.666h.889a2.694,2.694,0,0,0,5.276,0H21.245a2.694,2.694,0,0,0,5.276,0h.916A1.666,1.666,0,0,0,29.1,30.96V27.017a1.666,1.666,0,0,0-1.277-1.611l-2.111-4.638a2.249,2.249,0,0,0-2.027-1.277H19.607a.555.555,0,0,0-.555.555v5.3H17.3v-5.8a.555.555,0,0,0-.555-.555H13.525V16.353a.528.528,0,0,0-.555-.555ZM7.082,16.909h5.332v2.083H10.192a.528.528,0,0,0-.555.555V21.8H7.082Zm-.833,6H9.637v2.444H6.249ZM8.193,33.682a1.555,1.555,0,0,1-1.555-1.555,1.583,1.583,0,0,1,1.555-1.583,1.611,1.611,0,0,1,1.583,1.583,1.583,1.583,0,0,1-1.583,1.555Zm15.69,0a1.569,1.569,0,1,1,1.583-1.555A1.583,1.583,0,0,1,23.883,33.682Zm4.11-2.721a.555.555,0,0,1-.555.555h-.944a2.666,2.666,0,0,0-5.221,0H10.8a2.666,2.666,0,0,0-5.221,0H4.666a.555.555,0,0,1-.555-.555v-4.5H27.438a.555.555,0,0,1,.555.555ZM20.162,20.6h3.527a1.111,1.111,0,0,1,1,.639l1.888,4.11H20.162Zm-3.971,4.749H10.748V20.1h5.443Z" transform="translate(576.548 659.23)" fill="#28a745"/>
      </g>
    </g>
  </g>
</svg>
