<svg xmlns="http://www.w3.org/2000/svg" xmlns:xlink="http://www.w3.org/1999/xlink" width="38" height="52" viewBox="0 0 38 52">
  <defs>
    <clipPath id="clip-truck3">
      <rect width="38" height="52"/>
    </clipPath>
  </defs>
  <g id="truck3" clip-path="url(#clip-truck3)">
    <g id="Group_3" data-name="Group 3">
      <path id="Union_1" data-name="Union 1" d="M-678.145,342.764l-6.362-15.155a18.792,18.792,0,0,1-8.977-6.787A18.719,18.719,0,0,1-697,309.856a18.732,18.732,0,0,1,5.522-13.333A18.733,18.733,0,0,1-678.144,291a18.732,18.732,0,0,1,13.333,5.523,18.732,18.732,0,0,1,5.523,13.333,18.726,18.726,0,0,1-3.515,10.966,18.8,18.8,0,0,1-8.977,6.787l-6.362,15.155h0Zm-16-32.882a16.018,16.018,0,0,0,16,16,16.019,16.019,0,0,0,16-16,16.019,16.019,0,0,0-16-16,16.019,16.019,0,0,0-16,16Z" transform="translate(697 -291)" fill="#28a745"/>
      <path id="Path_7" data-name="Path 7" d="M22.87,41.7a3.87,3.87,0,0,0,3.718-2.814h6.634A3.87,3.87,0,0,0,40.81,37.83a2.334,2.334,0,0,0-.018-.352h.018v-6.4a3.869,3.869,0,0,0-.848-2.416l-4.38-5.474A3.166,3.166,0,0,0,33.12,22H28.85v7.036H26.036V24.814H23.925v4.221H21.111V24.814H19V37.478h.018c0,.116-.018.232-.018.352A3.87,3.87,0,0,0,22.87,41.7Zm0-2.111a1.759,1.759,0,1,1,1.759-1.759A1.759,1.759,0,0,1,22.87,39.589Zm14.071,0A1.759,1.759,0,1,1,38.7,37.83,1.759,1.759,0,0,1,36.941,39.589ZM30.96,24.111h2.153a1.055,1.055,0,0,1,.823.4l3.623,4.527h-6.6Zm-7.036,7.036H38.7v3.24a3.87,3.87,0,0,0-5.477,2.389H26.588a3.87,3.87,0,0,0-5.477-2.389v-3.24Z" transform="translate(-11.049 -13.311)" fill="#28a745" stroke="#fff" stroke-width="0.7"/>
    </g>
  </g>
</svg>
